<mxfile host="app.diagrams.net" agent="Mozilla/5.0 (Windows NT 10.0; Win64; x64) AppleWebKit/537.36 (KHTML, like Gecko) Chrome/131.0.0.0 Safari/537.36" version="25.0.3">
  <diagram name="Page-1" id="5z3uFyTvS2i-2IkW8HLW">
    <mxGraphModel dx="2345" dy="1783" grid="1" gridSize="10" guides="1" tooltips="1" connect="1" arrows="1" fold="1" page="1" pageScale="1" pageWidth="827" pageHeight="1169" math="0" shadow="0">
      <root>
        <mxCell id="0" />
        <mxCell id="1" parent="0" />
        <mxCell id="lSi4QGeNBZKj2a0an09N-1" value="User" style="swimlane;fontStyle=0;childLayout=stackLayout;horizontal=1;startSize=26;fillColor=none;horizontalStack=0;resizeParent=1;resizeParentMax=0;resizeLast=0;collapsible=1;marginBottom=0;whiteSpace=wrap;html=1;" parent="1" vertex="1">
          <mxGeometry x="30" y="202" width="140" height="182" as="geometry" />
        </mxCell>
        <mxCell id="8D_o49C-jzK-6hSNuc0B-14" value="userId" style="text;strokeColor=none;fillColor=none;align=left;verticalAlign=top;spacingLeft=4;spacingRight=4;overflow=hidden;rotatable=0;points=[[0,0.5],[1,0.5]];portConstraint=eastwest;whiteSpace=wrap;html=1;" vertex="1" parent="lSi4QGeNBZKj2a0an09N-1">
          <mxGeometry y="26" width="140" height="26" as="geometry" />
        </mxCell>
        <mxCell id="lSi4QGeNBZKj2a0an09N-2" value="firstName" style="text;strokeColor=none;fillColor=none;align=left;verticalAlign=top;spacingLeft=4;spacingRight=4;overflow=hidden;rotatable=0;points=[[0,0.5],[1,0.5]];portConstraint=eastwest;whiteSpace=wrap;html=1;" parent="lSi4QGeNBZKj2a0an09N-1" vertex="1">
          <mxGeometry y="52" width="140" height="26" as="geometry" />
        </mxCell>
        <mxCell id="lSi4QGeNBZKj2a0an09N-3" value="lastName" style="text;strokeColor=none;fillColor=none;align=left;verticalAlign=top;spacingLeft=4;spacingRight=4;overflow=hidden;rotatable=0;points=[[0,0.5],[1,0.5]];portConstraint=eastwest;whiteSpace=wrap;html=1;" parent="lSi4QGeNBZKj2a0an09N-1" vertex="1">
          <mxGeometry y="78" width="140" height="26" as="geometry" />
        </mxCell>
        <mxCell id="lSi4QGeNBZKj2a0an09N-4" value="email" style="text;strokeColor=none;fillColor=none;align=left;verticalAlign=top;spacingLeft=4;spacingRight=4;overflow=hidden;rotatable=0;points=[[0,0.5],[1,0.5]];portConstraint=eastwest;whiteSpace=wrap;html=1;" parent="lSi4QGeNBZKj2a0an09N-1" vertex="1">
          <mxGeometry y="104" width="140" height="26" as="geometry" />
        </mxCell>
        <mxCell id="8D_o49C-jzK-6hSNuc0B-2" value="password" style="text;strokeColor=none;fillColor=none;align=left;verticalAlign=top;spacingLeft=4;spacingRight=4;overflow=hidden;rotatable=0;points=[[0,0.5],[1,0.5]];portConstraint=eastwest;whiteSpace=wrap;html=1;" vertex="1" parent="lSi4QGeNBZKj2a0an09N-1">
          <mxGeometry y="130" width="140" height="26" as="geometry" />
        </mxCell>
        <mxCell id="8D_o49C-jzK-6hSNuc0B-58" value="role" style="text;strokeColor=none;fillColor=none;align=left;verticalAlign=top;spacingLeft=4;spacingRight=4;overflow=hidden;rotatable=0;points=[[0,0.5],[1,0.5]];portConstraint=eastwest;whiteSpace=wrap;html=1;" vertex="1" parent="lSi4QGeNBZKj2a0an09N-1">
          <mxGeometry y="156" width="140" height="26" as="geometry" />
        </mxCell>
        <mxCell id="8D_o49C-jzK-6hSNuc0B-1" value="API de Statistiques de Match Esport / de Pronostics sportifs e-sport gratuit à la MPP (Mon Petit Prono)&lt;div&gt;11€45&lt;/div&gt;" style="text;html=1;align=center;verticalAlign=middle;whiteSpace=wrap;rounded=0;" vertex="1" parent="1">
          <mxGeometry x="350" y="-450" width="350" height="170" as="geometry" />
        </mxCell>
        <mxCell id="8D_o49C-jzK-6hSNuc0B-4" value="Historique Match" style="swimlane;fontStyle=0;childLayout=stackLayout;horizontal=1;startSize=26;fillColor=none;horizontalStack=0;resizeParent=1;resizeParentMax=0;resizeLast=0;collapsible=1;marginBottom=0;whiteSpace=wrap;html=1;" vertex="1" parent="1">
          <mxGeometry x="190" y="40" width="140" height="78" as="geometry" />
        </mxCell>
        <mxCell id="8D_o49C-jzK-6hSNuc0B-24" value="historiqueId" style="text;strokeColor=none;fillColor=none;align=left;verticalAlign=top;spacingLeft=4;spacingRight=4;overflow=hidden;rotatable=0;points=[[0,0.5],[1,0.5]];portConstraint=eastwest;whiteSpace=wrap;html=1;" vertex="1" parent="8D_o49C-jzK-6hSNuc0B-4">
          <mxGeometry y="26" width="140" height="26" as="geometry" />
        </mxCell>
        <mxCell id="8D_o49C-jzK-6hSNuc0B-6" value="finalScore" style="text;strokeColor=none;fillColor=none;align=left;verticalAlign=top;spacingLeft=4;spacingRight=4;overflow=hidden;rotatable=0;points=[[0,0.5],[1,0.5]];portConstraint=eastwest;whiteSpace=wrap;html=1;" vertex="1" parent="8D_o49C-jzK-6hSNuc0B-4">
          <mxGeometry y="52" width="140" height="26" as="geometry" />
        </mxCell>
        <mxCell id="8D_o49C-jzK-6hSNuc0B-9" value="Classement" style="swimlane;fontStyle=0;childLayout=stackLayout;horizontal=1;startSize=26;fillColor=none;horizontalStack=0;resizeParent=1;resizeParentMax=0;resizeLast=0;collapsible=1;marginBottom=0;whiteSpace=wrap;html=1;" vertex="1" parent="1">
          <mxGeometry x="344" y="230" width="140" height="130" as="geometry" />
        </mxCell>
        <mxCell id="8D_o49C-jzK-6hSNuc0B-10" value="classementId" style="text;strokeColor=none;fillColor=none;align=left;verticalAlign=top;spacingLeft=4;spacingRight=4;overflow=hidden;rotatable=0;points=[[0,0.5],[1,0.5]];portConstraint=eastwest;whiteSpace=wrap;html=1;" vertex="1" parent="8D_o49C-jzK-6hSNuc0B-9">
          <mxGeometry y="26" width="140" height="26" as="geometry" />
        </mxCell>
        <mxCell id="8D_o49C-jzK-6hSNuc0B-11" value="sportName" style="text;strokeColor=none;fillColor=none;align=left;verticalAlign=top;spacingLeft=4;spacingRight=4;overflow=hidden;rotatable=0;points=[[0,0.5],[1,0.5]];portConstraint=eastwest;whiteSpace=wrap;html=1;" vertex="1" parent="8D_o49C-jzK-6hSNuc0B-9">
          <mxGeometry y="52" width="140" height="26" as="geometry" />
        </mxCell>
        <mxCell id="8D_o49C-jzK-6hSNuc0B-22" value="teamName" style="text;strokeColor=none;fillColor=none;align=left;verticalAlign=top;spacingLeft=4;spacingRight=4;overflow=hidden;rotatable=0;points=[[0,0.5],[1,0.5]];portConstraint=eastwest;whiteSpace=wrap;html=1;" vertex="1" parent="8D_o49C-jzK-6hSNuc0B-9">
          <mxGeometry y="78" width="140" height="26" as="geometry" />
        </mxCell>
        <mxCell id="8D_o49C-jzK-6hSNuc0B-23" value="rankNumber" style="text;strokeColor=none;fillColor=none;align=left;verticalAlign=top;spacingLeft=4;spacingRight=4;overflow=hidden;rotatable=0;points=[[0,0.5],[1,0.5]];portConstraint=eastwest;whiteSpace=wrap;html=1;" vertex="1" parent="8D_o49C-jzK-6hSNuc0B-9">
          <mxGeometry y="104" width="140" height="26" as="geometry" />
        </mxCell>
        <mxCell id="8D_o49C-jzK-6hSNuc0B-15" value="Jeu" style="swimlane;fontStyle=0;childLayout=stackLayout;horizontal=1;startSize=26;fillColor=none;horizontalStack=0;resizeParent=1;resizeParentMax=0;resizeLast=0;collapsible=1;marginBottom=0;whiteSpace=wrap;html=1;" vertex="1" parent="1">
          <mxGeometry x="940" y="180" width="140" height="78" as="geometry" />
        </mxCell>
        <mxCell id="8D_o49C-jzK-6hSNuc0B-16" value="jeuId" style="text;strokeColor=none;fillColor=none;align=left;verticalAlign=top;spacingLeft=4;spacingRight=4;overflow=hidden;rotatable=0;points=[[0,0.5],[1,0.5]];portConstraint=eastwest;whiteSpace=wrap;html=1;" vertex="1" parent="8D_o49C-jzK-6hSNuc0B-15">
          <mxGeometry y="26" width="140" height="26" as="geometry" />
        </mxCell>
        <mxCell id="8D_o49C-jzK-6hSNuc0B-17" value="jeuName" style="text;strokeColor=none;fillColor=none;align=left;verticalAlign=top;spacingLeft=4;spacingRight=4;overflow=hidden;rotatable=0;points=[[0,0.5],[1,0.5]];portConstraint=eastwest;whiteSpace=wrap;html=1;" vertex="1" parent="8D_o49C-jzK-6hSNuc0B-15">
          <mxGeometry y="52" width="140" height="26" as="geometry" />
        </mxCell>
        <mxCell id="8D_o49C-jzK-6hSNuc0B-19" value="Equipe" style="swimlane;fontStyle=0;childLayout=stackLayout;horizontal=1;startSize=26;fillColor=none;horizontalStack=0;resizeParent=1;resizeParentMax=0;resizeLast=0;collapsible=1;marginBottom=0;whiteSpace=wrap;html=1;" vertex="1" parent="1">
          <mxGeometry x="910" y="-164" width="140" height="78" as="geometry" />
        </mxCell>
        <mxCell id="8D_o49C-jzK-6hSNuc0B-20" value="teamId" style="text;strokeColor=none;fillColor=none;align=left;verticalAlign=top;spacingLeft=4;spacingRight=4;overflow=hidden;rotatable=0;points=[[0,0.5],[1,0.5]];portConstraint=eastwest;whiteSpace=wrap;html=1;" vertex="1" parent="8D_o49C-jzK-6hSNuc0B-19">
          <mxGeometry y="26" width="140" height="26" as="geometry" />
        </mxCell>
        <mxCell id="8D_o49C-jzK-6hSNuc0B-21" value="teamName" style="text;strokeColor=none;fillColor=none;align=left;verticalAlign=top;spacingLeft=4;spacingRight=4;overflow=hidden;rotatable=0;points=[[0,0.5],[1,0.5]];portConstraint=eastwest;whiteSpace=wrap;html=1;" vertex="1" parent="8D_o49C-jzK-6hSNuc0B-19">
          <mxGeometry y="52" width="140" height="26" as="geometry" />
        </mxCell>
        <mxCell id="8D_o49C-jzK-6hSNuc0B-25" value="Player" style="swimlane;fontStyle=0;childLayout=stackLayout;horizontal=1;startSize=26;fillColor=none;horizontalStack=0;resizeParent=1;resizeParentMax=0;resizeLast=0;collapsible=1;marginBottom=0;whiteSpace=wrap;html=1;" vertex="1" parent="1">
          <mxGeometry x="344" y="518" width="140" height="104" as="geometry" />
        </mxCell>
        <mxCell id="8D_o49C-jzK-6hSNuc0B-26" value="playerId" style="text;strokeColor=none;fillColor=none;align=left;verticalAlign=top;spacingLeft=4;spacingRight=4;overflow=hidden;rotatable=0;points=[[0,0.5],[1,0.5]];portConstraint=eastwest;whiteSpace=wrap;html=1;" vertex="1" parent="8D_o49C-jzK-6hSNuc0B-25">
          <mxGeometry y="26" width="140" height="26" as="geometry" />
        </mxCell>
        <mxCell id="8D_o49C-jzK-6hSNuc0B-27" value="firstName" style="text;strokeColor=none;fillColor=none;align=left;verticalAlign=top;spacingLeft=4;spacingRight=4;overflow=hidden;rotatable=0;points=[[0,0.5],[1,0.5]];portConstraint=eastwest;whiteSpace=wrap;html=1;" vertex="1" parent="8D_o49C-jzK-6hSNuc0B-25">
          <mxGeometry y="52" width="140" height="26" as="geometry" />
        </mxCell>
        <mxCell id="8D_o49C-jzK-6hSNuc0B-28" value="lastName" style="text;strokeColor=none;fillColor=none;align=left;verticalAlign=top;spacingLeft=4;spacingRight=4;overflow=hidden;rotatable=0;points=[[0,0.5],[1,0.5]];portConstraint=eastwest;whiteSpace=wrap;html=1;" vertex="1" parent="8D_o49C-jzK-6hSNuc0B-25">
          <mxGeometry y="78" width="140" height="26" as="geometry" />
        </mxCell>
        <mxCell id="8D_o49C-jzK-6hSNuc0B-33" value="Pronostic" style="swimlane;fontStyle=0;childLayout=stackLayout;horizontal=1;startSize=26;fillColor=none;horizontalStack=0;resizeParent=1;resizeParentMax=0;resizeLast=0;collapsible=1;marginBottom=0;whiteSpace=wrap;html=1;" vertex="1" parent="1">
          <mxGeometry x="620" y="531" width="140" height="78" as="geometry" />
        </mxCell>
        <mxCell id="8D_o49C-jzK-6hSNuc0B-34" value="pronoId" style="text;strokeColor=none;fillColor=none;align=left;verticalAlign=top;spacingLeft=4;spacingRight=4;overflow=hidden;rotatable=0;points=[[0,0.5],[1,0.5]];portConstraint=eastwest;whiteSpace=wrap;html=1;" vertex="1" parent="8D_o49C-jzK-6hSNuc0B-33">
          <mxGeometry y="26" width="140" height="26" as="geometry" />
        </mxCell>
        <mxCell id="8D_o49C-jzK-6hSNuc0B-32" value="pronoScore" style="text;strokeColor=none;fillColor=none;align=left;verticalAlign=top;spacingLeft=4;spacingRight=4;overflow=hidden;rotatable=0;points=[[0,0.5],[1,0.5]];portConstraint=eastwest;whiteSpace=wrap;html=1;" vertex="1" parent="8D_o49C-jzK-6hSNuc0B-33">
          <mxGeometry y="52" width="140" height="26" as="geometry" />
        </mxCell>
        <mxCell id="8D_o49C-jzK-6hSNuc0B-39" value="Match" style="swimlane;fontStyle=0;childLayout=stackLayout;horizontal=1;startSize=26;fillColor=none;horizontalStack=0;resizeParent=1;resizeParentMax=0;resizeLast=0;collapsible=1;marginBottom=0;whiteSpace=wrap;html=1;" vertex="1" parent="1">
          <mxGeometry x="450" y="-190" width="140" height="52" as="geometry" />
        </mxCell>
        <mxCell id="8D_o49C-jzK-6hSNuc0B-40" value="matchId" style="text;strokeColor=none;fillColor=none;align=left;verticalAlign=top;spacingLeft=4;spacingRight=4;overflow=hidden;rotatable=0;points=[[0,0.5],[1,0.5]];portConstraint=eastwest;whiteSpace=wrap;html=1;" vertex="1" parent="8D_o49C-jzK-6hSNuc0B-39">
          <mxGeometry y="26" width="140" height="26" as="geometry" />
        </mxCell>
        <mxCell id="8D_o49C-jzK-6hSNuc0B-48" value="" style="endArrow=block;startArrow=block;endFill=1;startFill=1;html=1;rounded=0;exitX=0.634;exitY=0.998;exitDx=0;exitDy=0;entryX=0.437;entryY=-0.026;entryDx=0;entryDy=0;entryPerimeter=0;exitPerimeter=0;" edge="1" parent="1" source="8D_o49C-jzK-6hSNuc0B-21" target="8D_o49C-jzK-6hSNuc0B-15">
          <mxGeometry width="160" relative="1" as="geometry">
            <mxPoint x="690" y="170" as="sourcePoint" />
            <mxPoint x="850" y="170" as="targetPoint" />
            <Array as="points">
              <mxPoint x="1001" y="80" />
            </Array>
          </mxGeometry>
        </mxCell>
        <mxCell id="8D_o49C-jzK-6hSNuc0B-50" value="" style="endArrow=block;startArrow=block;endFill=1;startFill=1;html=1;rounded=0;exitX=0;exitY=0.5;exitDx=0;exitDy=0;entryX=0.5;entryY=0;entryDx=0;entryDy=0;" edge="1" parent="1" source="8D_o49C-jzK-6hSNuc0B-24" target="lSi4QGeNBZKj2a0an09N-1">
          <mxGeometry width="160" relative="1" as="geometry">
            <mxPoint x="230" y="130" as="sourcePoint" />
            <mxPoint x="231" y="288" as="targetPoint" />
            <Array as="points">
              <mxPoint x="100" y="80" />
            </Array>
          </mxGeometry>
        </mxCell>
        <mxCell id="8D_o49C-jzK-6hSNuc0B-56" value="" style="endArrow=block;startArrow=block;endFill=1;startFill=1;html=1;rounded=0;exitX=0.5;exitY=0;exitDx=0;exitDy=0;entryX=1;entryY=0.085;entryDx=0;entryDy=0;entryPerimeter=0;" edge="1" parent="1" source="8D_o49C-jzK-6hSNuc0B-19" target="8D_o49C-jzK-6hSNuc0B-40">
          <mxGeometry width="160" relative="1" as="geometry">
            <mxPoint x="660" y="84" as="sourcePoint" />
            <mxPoint x="558" y="96" as="targetPoint" />
            <Array as="points">
              <mxPoint x="730" y="-162" />
            </Array>
          </mxGeometry>
        </mxCell>
        <mxCell id="8D_o49C-jzK-6hSNuc0B-59" value="" style="endArrow=block;startArrow=block;endFill=1;startFill=1;html=1;rounded=0;" edge="1" parent="1">
          <mxGeometry width="160" relative="1" as="geometry">
            <mxPoint x="1020" y="260" as="sourcePoint" />
            <mxPoint x="760" y="531" as="targetPoint" />
            <Array as="points">
              <mxPoint x="1020" y="530" />
            </Array>
          </mxGeometry>
        </mxCell>
        <mxCell id="8D_o49C-jzK-6hSNuc0B-60" value="" style="endArrow=block;startArrow=block;endFill=1;startFill=1;html=1;rounded=0;entryX=1;entryY=0;entryDx=0;entryDy=0;exitX=0;exitY=0.5;exitDx=0;exitDy=0;" edge="1" parent="1" source="8D_o49C-jzK-6hSNuc0B-21" target="8D_o49C-jzK-6hSNuc0B-9">
          <mxGeometry width="160" relative="1" as="geometry">
            <mxPoint x="570" y="160" as="sourcePoint" />
            <mxPoint x="570" y="331" as="targetPoint" />
          </mxGeometry>
        </mxCell>
        <mxCell id="8D_o49C-jzK-6hSNuc0B-61" value="have" style="ellipse;whiteSpace=wrap;html=1;" vertex="1" parent="1">
          <mxGeometry x="520" y="150" width="100" height="40" as="geometry" />
        </mxCell>
        <mxCell id="8D_o49C-jzK-6hSNuc0B-63" value="" style="endArrow=block;startArrow=block;endFill=1;startFill=1;html=1;rounded=0;entryX=1;entryY=0;entryDx=0;entryDy=0;exitX=0.106;exitY=0.992;exitDx=0;exitDy=0;exitPerimeter=0;" edge="1" parent="1" source="8D_o49C-jzK-6hSNuc0B-21" target="8D_o49C-jzK-6hSNuc0B-25">
          <mxGeometry width="160" relative="1" as="geometry">
            <mxPoint x="670" y="230" as="sourcePoint" />
            <mxPoint x="494" y="355" as="targetPoint" />
          </mxGeometry>
        </mxCell>
        <mxCell id="8D_o49C-jzK-6hSNuc0B-64" value="have" style="ellipse;whiteSpace=wrap;html=1;" vertex="1" parent="1">
          <mxGeometry x="530" y="294" width="100" height="50" as="geometry" />
        </mxCell>
        <mxCell id="8D_o49C-jzK-6hSNuc0B-65" value="" style="endArrow=block;startArrow=block;endFill=1;startFill=1;html=1;rounded=0;entryX=0.5;entryY=0;entryDx=0;entryDy=0;exitX=0.5;exitY=1.069;exitDx=0;exitDy=0;exitPerimeter=0;" edge="1" parent="1" source="8D_o49C-jzK-6hSNuc0B-23" target="8D_o49C-jzK-6hSNuc0B-25">
          <mxGeometry width="160" relative="1" as="geometry">
            <mxPoint x="399.8399999999999" y="363.98799999999983" as="sourcePoint" />
            <mxPoint x="414" y="518" as="targetPoint" />
          </mxGeometry>
        </mxCell>
        <mxCell id="8D_o49C-jzK-6hSNuc0B-66" value="have" style="ellipse;whiteSpace=wrap;html=1;" vertex="1" parent="1">
          <mxGeometry x="364" y="410" width="100" height="48" as="geometry" />
        </mxCell>
        <mxCell id="8D_o49C-jzK-6hSNuc0B-67" value="" style="endArrow=block;startArrow=block;endFill=1;startFill=1;html=1;rounded=0;entryX=0.517;entryY=1.092;entryDx=0;entryDy=0;exitX=0.486;exitY=1.1;exitDx=0;exitDy=0;exitPerimeter=0;entryPerimeter=0;" edge="1" parent="1" source="8D_o49C-jzK-6hSNuc0B-58" target="8D_o49C-jzK-6hSNuc0B-32">
          <mxGeometry width="160" relative="1" as="geometry">
            <mxPoint x="311" y="330" as="sourcePoint" />
            <mxPoint x="120" y="730" as="targetPoint" />
            <Array as="points">
              <mxPoint x="98" y="720" />
              <mxPoint x="692" y="720" />
            </Array>
          </mxGeometry>
        </mxCell>
        <mxCell id="8D_o49C-jzK-6hSNuc0B-68" value="make" style="ellipse;whiteSpace=wrap;html=1;" vertex="1" parent="1">
          <mxGeometry x="40" y="680" width="120" height="50" as="geometry" />
        </mxCell>
        <mxCell id="8D_o49C-jzK-6hSNuc0B-69" value="" style="endArrow=block;startArrow=block;endFill=1;startFill=1;html=1;rounded=0;exitX=1;exitY=0;exitDx=0;exitDy=0;" edge="1" parent="1" source="8D_o49C-jzK-6hSNuc0B-39">
          <mxGeometry width="160" relative="1" as="geometry">
            <mxPoint x="318" y="171" as="sourcePoint" />
            <mxPoint x="760" y="600" as="targetPoint" />
            <Array as="points">
              <mxPoint x="1280" y="-190" />
              <mxPoint x="1280" y="200" />
              <mxPoint x="1280" y="600" />
              <mxPoint x="1010" y="600" />
              <mxPoint x="870" y="600" />
            </Array>
          </mxGeometry>
        </mxCell>
        <mxCell id="8D_o49C-jzK-6hSNuc0B-71" value="concerns" style="ellipse;whiteSpace=wrap;html=1;" vertex="1" parent="1">
          <mxGeometry x="180" y="430" width="110" height="48" as="geometry" />
        </mxCell>
        <mxCell id="8D_o49C-jzK-6hSNuc0B-72" value="1, n" style="text;html=1;align=center;verticalAlign=middle;whiteSpace=wrap;rounded=0;" vertex="1" parent="1">
          <mxGeometry x="40" y="390" width="60" height="30" as="geometry" />
        </mxCell>
        <mxCell id="8D_o49C-jzK-6hSNuc0B-73" value="1, 1" style="text;html=1;align=center;verticalAlign=middle;whiteSpace=wrap;rounded=0;" vertex="1" parent="1">
          <mxGeometry x="630" y="622" width="60" height="30" as="geometry" />
        </mxCell>
        <mxCell id="8D_o49C-jzK-6hSNuc0B-74" value="1, 1" style="text;html=1;align=center;verticalAlign=middle;whiteSpace=wrap;rounded=0;" vertex="1" parent="1">
          <mxGeometry x="760" y="501" width="60" height="30" as="geometry" />
        </mxCell>
        <mxCell id="8D_o49C-jzK-6hSNuc0B-75" value="0, n" style="text;html=1;align=center;verticalAlign=middle;whiteSpace=wrap;rounded=0;" vertex="1" parent="1">
          <mxGeometry x="950" y="264" width="60" height="30" as="geometry" />
        </mxCell>
        <mxCell id="8D_o49C-jzK-6hSNuc0B-76" value="1, n" style="text;html=1;align=center;verticalAlign=middle;whiteSpace=wrap;rounded=0;" vertex="1" parent="1">
          <mxGeometry x="940" y="140" width="60" height="30" as="geometry" />
        </mxCell>
        <mxCell id="8D_o49C-jzK-6hSNuc0B-77" value="1, n" style="text;html=1;align=center;verticalAlign=middle;whiteSpace=wrap;rounded=0;" vertex="1" parent="1">
          <mxGeometry x="800" y="50" width="60" height="30" as="geometry" />
        </mxCell>
        <mxCell id="8D_o49C-jzK-6hSNuc0B-78" value="0, n" style="text;html=1;align=center;verticalAlign=middle;whiteSpace=wrap;rounded=0;" vertex="1" parent="1">
          <mxGeometry x="670" y="10" width="60" height="30" as="geometry" />
        </mxCell>
        <mxCell id="8D_o49C-jzK-6hSNuc0B-79" value="2, 2" style="text;html=1;align=center;verticalAlign=middle;whiteSpace=wrap;rounded=0;" vertex="1" parent="1">
          <mxGeometry x="590" y="-160" width="60" height="30" as="geometry" />
        </mxCell>
        <mxCell id="8D_o49C-jzK-6hSNuc0B-80" value="1, 1" style="text;html=1;align=center;verticalAlign=middle;whiteSpace=wrap;rounded=0;" vertex="1" parent="1">
          <mxGeometry x="384" y="-190" width="60" height="30" as="geometry" />
        </mxCell>
        <mxCell id="8D_o49C-jzK-6hSNuc0B-81" value="1, 1" style="text;html=1;align=center;verticalAlign=middle;whiteSpace=wrap;rounded=0;" vertex="1" parent="1">
          <mxGeometry x="260" y="10" width="60" height="30" as="geometry" />
        </mxCell>
        <mxCell id="8D_o49C-jzK-6hSNuc0B-82" value="0, n" style="text;html=1;align=center;verticalAlign=middle;whiteSpace=wrap;rounded=0;" vertex="1" parent="1">
          <mxGeometry x="100" y="170" width="60" height="30" as="geometry" />
        </mxCell>
        <mxCell id="8D_o49C-jzK-6hSNuc0B-83" value="0, n" style="text;html=1;align=center;verticalAlign=middle;whiteSpace=wrap;rounded=0;" vertex="1" parent="1">
          <mxGeometry x="130" y="50" width="60" height="30" as="geometry" />
        </mxCell>
        <mxCell id="8D_o49C-jzK-6hSNuc0B-84" value="1, n" style="text;html=1;align=center;verticalAlign=middle;whiteSpace=wrap;rounded=0;" vertex="1" parent="1">
          <mxGeometry x="590" y="-230" width="60" height="30" as="geometry" />
        </mxCell>
        <mxCell id="8D_o49C-jzK-6hSNuc0B-85" value="1, 1" style="text;html=1;align=center;verticalAlign=middle;whiteSpace=wrap;rounded=0;" vertex="1" parent="1">
          <mxGeometry x="780" y="600" width="60" height="30" as="geometry" />
        </mxCell>
        <mxCell id="8D_o49C-jzK-6hSNuc0B-86" value="1, 1" style="text;html=1;align=center;verticalAlign=middle;whiteSpace=wrap;rounded=0;" vertex="1" parent="1">
          <mxGeometry x="500" y="488" width="60" height="30" as="geometry" />
        </mxCell>
        <mxCell id="8D_o49C-jzK-6hSNuc0B-87" value="1, n" style="text;html=1;align=center;verticalAlign=middle;whiteSpace=wrap;rounded=0;" vertex="1" parent="1">
          <mxGeometry x="850" y="-160" width="60" height="30" as="geometry" />
        </mxCell>
        <mxCell id="8D_o49C-jzK-6hSNuc0B-88" value="1, 1" style="text;html=1;align=center;verticalAlign=middle;whiteSpace=wrap;rounded=0;" vertex="1" parent="1">
          <mxGeometry x="560" y="120" width="60" height="30" as="geometry" />
        </mxCell>
        <mxCell id="8D_o49C-jzK-6hSNuc0B-89" value="1, n" style="text;html=1;align=center;verticalAlign=middle;whiteSpace=wrap;rounded=0;" vertex="1" parent="1">
          <mxGeometry x="430" y="200" width="60" height="30" as="geometry" />
        </mxCell>
        <mxCell id="8D_o49C-jzK-6hSNuc0B-90" value="1, 1" style="text;html=1;align=center;verticalAlign=middle;whiteSpace=wrap;rounded=0;" vertex="1" parent="1">
          <mxGeometry x="414" y="488" width="60" height="30" as="geometry" />
        </mxCell>
        <mxCell id="8D_o49C-jzK-6hSNuc0B-91" value="1, n" style="text;html=1;align=center;verticalAlign=middle;whiteSpace=wrap;rounded=0;" vertex="1" parent="1">
          <mxGeometry x="414" y="360" width="60" height="30" as="geometry" />
        </mxCell>
        <mxCell id="8D_o49C-jzK-6hSNuc0B-95" value="Become" style="swimlane;fontStyle=1;align=center;verticalAlign=top;childLayout=stackLayout;horizontal=1;startSize=26;horizontalStack=0;resizeParent=1;resizeParentMax=0;resizeLast=0;collapsible=1;marginBottom=0;whiteSpace=wrap;html=1;" vertex="1" parent="1">
          <mxGeometry x="180" y="-190" width="160" height="34" as="geometry">
            <mxRectangle x="180" y="-190" width="80" height="30" as="alternateBounds" />
          </mxGeometry>
        </mxCell>
        <mxCell id="8D_o49C-jzK-6hSNuc0B-97" value="" style="line;strokeWidth=1;fillColor=none;align=left;verticalAlign=middle;spacingTop=-1;spacingLeft=3;spacingRight=3;rotatable=0;labelPosition=right;points=[];portConstraint=eastwest;strokeColor=inherit;" vertex="1" parent="8D_o49C-jzK-6hSNuc0B-95">
          <mxGeometry y="26" width="160" height="8" as="geometry" />
        </mxCell>
        <mxCell id="8D_o49C-jzK-6hSNuc0B-99" value="" style="endArrow=block;startArrow=block;endFill=1;startFill=1;html=1;rounded=0;entryX=0;entryY=0.5;entryDx=0;entryDy=0;" edge="1" parent="1" target="8D_o49C-jzK-6hSNuc0B-40">
          <mxGeometry width="160" relative="1" as="geometry">
            <mxPoint x="340" y="-151" as="sourcePoint" />
            <mxPoint x="500" y="-60" as="targetPoint" />
          </mxGeometry>
        </mxCell>
        <mxCell id="8D_o49C-jzK-6hSNuc0B-100" value="" style="endArrow=block;startArrow=block;endFill=1;startFill=1;html=1;rounded=0;entryX=0.5;entryY=0;entryDx=0;entryDy=0;" edge="1" parent="1" target="8D_o49C-jzK-6hSNuc0B-4">
          <mxGeometry width="160" relative="1" as="geometry">
            <mxPoint x="260" y="-130" as="sourcePoint" />
            <mxPoint x="379" y="-50" as="targetPoint" />
          </mxGeometry>
        </mxCell>
        <mxCell id="8D_o49C-jzK-6hSNuc0B-102" value="Concerns" style="swimlane;fontStyle=1;align=center;verticalAlign=top;childLayout=stackLayout;horizontal=1;startSize=26;horizontalStack=0;resizeParent=1;resizeParentMax=0;resizeLast=0;collapsible=1;marginBottom=0;whiteSpace=wrap;html=1;" vertex="1" parent="1">
          <mxGeometry x="667" y="-180" width="160" height="34" as="geometry">
            <mxRectangle x="180" y="-190" width="80" height="30" as="alternateBounds" />
          </mxGeometry>
        </mxCell>
        <mxCell id="8D_o49C-jzK-6hSNuc0B-103" value="" style="line;strokeWidth=1;fillColor=none;align=left;verticalAlign=middle;spacingTop=-1;spacingLeft=3;spacingRight=3;rotatable=0;labelPosition=right;points=[];portConstraint=eastwest;strokeColor=inherit;" vertex="1" parent="8D_o49C-jzK-6hSNuc0B-102">
          <mxGeometry y="26" width="160" height="8" as="geometry" />
        </mxCell>
        <mxCell id="8D_o49C-jzK-6hSNuc0B-105" value="Concerns" style="swimlane;fontStyle=1;align=center;verticalAlign=top;childLayout=stackLayout;horizontal=1;startSize=26;horizontalStack=0;resizeParent=1;resizeParentMax=0;resizeLast=0;collapsible=1;marginBottom=0;whiteSpace=wrap;html=1;" vertex="1" parent="1">
          <mxGeometry x="920" y="40" width="160" height="34" as="geometry">
            <mxRectangle x="180" y="-190" width="80" height="30" as="alternateBounds" />
          </mxGeometry>
        </mxCell>
        <mxCell id="8D_o49C-jzK-6hSNuc0B-106" value="" style="line;strokeWidth=1;fillColor=none;align=left;verticalAlign=middle;spacingTop=-1;spacingLeft=3;spacingRight=3;rotatable=0;labelPosition=right;points=[];portConstraint=eastwest;strokeColor=inherit;" vertex="1" parent="8D_o49C-jzK-6hSNuc0B-105">
          <mxGeometry y="26" width="160" height="8" as="geometry" />
        </mxCell>
        <mxCell id="8D_o49C-jzK-6hSNuc0B-109" value="Have" style="swimlane;fontStyle=1;align=center;verticalAlign=top;childLayout=stackLayout;horizontal=1;startSize=26;horizontalStack=0;resizeParent=1;resizeParentMax=0;resizeLast=0;collapsible=1;marginBottom=0;whiteSpace=wrap;html=1;" vertex="1" parent="1">
          <mxGeometry x="940" y="370" width="160" height="60" as="geometry">
            <mxRectangle x="180" y="-190" width="80" height="30" as="alternateBounds" />
          </mxGeometry>
        </mxCell>
        <mxCell id="8D_o49C-jzK-6hSNuc0B-110" value="" style="line;strokeWidth=1;fillColor=none;align=left;verticalAlign=middle;spacingTop=-1;spacingLeft=3;spacingRight=3;rotatable=0;labelPosition=right;points=[];portConstraint=eastwest;strokeColor=inherit;" vertex="1" parent="8D_o49C-jzK-6hSNuc0B-109">
          <mxGeometry y="26" width="160" height="8" as="geometry" />
        </mxCell>
        <mxCell id="8D_o49C-jzK-6hSNuc0B-111" value="+ method(type): type" style="text;strokeColor=none;fillColor=none;align=left;verticalAlign=top;spacingLeft=4;spacingRight=4;overflow=hidden;rotatable=0;points=[[0,0.5],[1,0.5]];portConstraint=eastwest;whiteSpace=wrap;html=1;" vertex="1" parent="8D_o49C-jzK-6hSNuc0B-109">
          <mxGeometry y="34" width="160" height="26" as="geometry" />
        </mxCell>
        <mxCell id="8D_o49C-jzK-6hSNuc0B-113" value="See" style="swimlane;fontStyle=1;align=center;verticalAlign=top;childLayout=stackLayout;horizontal=1;startSize=26;horizontalStack=0;resizeParent=1;resizeParentMax=0;resizeLast=0;collapsible=1;marginBottom=0;whiteSpace=wrap;html=1;" vertex="1" parent="1">
          <mxGeometry x="-30" y="80" width="160" height="34" as="geometry">
            <mxRectangle x="180" y="-190" width="80" height="30" as="alternateBounds" />
          </mxGeometry>
        </mxCell>
        <mxCell id="8D_o49C-jzK-6hSNuc0B-114" value="" style="line;strokeWidth=1;fillColor=none;align=left;verticalAlign=middle;spacingTop=-1;spacingLeft=3;spacingRight=3;rotatable=0;labelPosition=right;points=[];portConstraint=eastwest;strokeColor=inherit;" vertex="1" parent="8D_o49C-jzK-6hSNuc0B-113">
          <mxGeometry y="26" width="160" height="8" as="geometry" />
        </mxCell>
        <mxCell id="8D_o49C-jzK-6hSNuc0B-117" value="Concerns" style="swimlane;fontStyle=1;align=center;verticalAlign=top;childLayout=stackLayout;horizontal=1;startSize=26;horizontalStack=0;resizeParent=1;resizeParentMax=0;resizeLast=0;collapsible=1;marginBottom=0;whiteSpace=wrap;html=1;" vertex="1" parent="1">
          <mxGeometry x="1210" y="276" width="160" height="34" as="geometry">
            <mxRectangle x="180" y="-190" width="80" height="30" as="alternateBounds" />
          </mxGeometry>
        </mxCell>
        <mxCell id="8D_o49C-jzK-6hSNuc0B-118" value="" style="line;strokeWidth=1;fillColor=none;align=left;verticalAlign=middle;spacingTop=-1;spacingLeft=3;spacingRight=3;rotatable=0;labelPosition=right;points=[];portConstraint=eastwest;strokeColor=inherit;" vertex="1" parent="8D_o49C-jzK-6hSNuc0B-117">
          <mxGeometry y="26" width="160" height="8" as="geometry" />
        </mxCell>
      </root>
    </mxGraphModel>
  </diagram>
</mxfile>
